<?xml version="1.0" encoding="UTF-8" standalone="no"?>
<!-- Created with Inkscape (http://www.inkscape.org/) -->

<svg
   width="90.399361mm"
   height="15.434039mm"
   viewBox="0 0 90.399361 15.434039"
   version="1.1"
   id="svg5"
   inkscape:version="1.2.2 (732a01da63, 2022-12-09)"
   sodipodi:docname="qrcards_logo.svg"
   xmlns:inkscape="http://www.inkscape.org/namespaces/inkscape"
   xmlns:sodipodi="http://sodipodi.sourceforge.net/DTD/sodipodi-0.dtd"
   xmlns="http://www.w3.org/2000/svg"
   xmlns:svg="http://www.w3.org/2000/svg">
  <sodipodi:namedview
     id="namedview7"
     pagecolor="#ffffff"
     bordercolor="#000000"
     borderopacity="0.25"
     inkscape:showpageshadow="2"
     inkscape:pageopacity="0.0"
     inkscape:pagecheckerboard="0"
     inkscape:deskcolor="#d1d1d1"
     inkscape:document-units="mm"
     showgrid="false"
     inkscape:zoom="2.8079686"
     inkscape:cx="159.72401"
     inkscape:cy="99.003957"
     inkscape:window-width="1649"
     inkscape:window-height="1020"
     inkscape:window-x="152"
     inkscape:window-y="0"
     inkscape:window-maximized="0"
     inkscape:current-layer="layer1" />
  <defs
     id="defs2">
    <rect
       x="82.622009"
       y="311.9693"
       width="622.5141"
       height="162.39497"
       id="rect113" />
  </defs>
  <g
     inkscape:label="Layer 1"
     inkscape:groupmode="layer"
     id="layer1"
     transform="translate(-65.204315,-72.290378)">
    <text
       xml:space="preserve"
       transform="scale(0.26458333)"
       id="text111"
       style="font-style:normal;font-variant:normal;font-weight:normal;font-stretch:normal;font-size:66.6667px;font-family:Minecraftia;-inkscape-font-specification:Minecraftia;white-space:pre;shape-inside:url(#rect113);fill:#000000" />
    <g
       aria-label="QRCards"
       id="text119"
       style="font-size:17.6389px;font-family:Minecraftia;-inkscape-font-specification:Minecraftia;stroke-width:0.264583"
       transform="translate(0.75380729,6.4073604)">
      <path
         d="m 66.655371,81.317057 v -2.204863 h 4.409725 v 2.204863 z m 6.614587,0 v -2.204863 h 2.204863 v 2.204863 z m -2.204862,-2.204863 v -2.204863 h 2.204862 v 2.204863 z m -6.614588,0 V 68.087881 h 2.204863 v 11.024313 z m 8.81945,-2.204863 v -8.81945 h 2.204863 v 8.81945 z m -6.614587,-8.81945 v -2.204863 h 6.614587 v 2.204863 z"
         id="path272" />
      <path
         d="m 86.499134,81.317057 v -8.819451 h 2.204863 v 8.819451 z m 0,-11.024313 v -2.204863 h 2.204863 v 2.204863 z m -8.81945,11.024313 V 65.883018 h 8.81945 v 2.204863 h -6.614588 v 2.204863 h 6.614588 v 2.204862 h -6.614588 v 8.819451 z"
         id="path274" />
      <path
         d="m 93.113722,81.317057 v -2.204863 h 6.614588 v 2.204863 z m 6.614588,-2.204863 v -2.204863 h 2.20486 v 2.204863 z m -8.819451,0 V 68.087881 h 2.204863 v 11.024313 z m 8.819451,-8.81945 v -2.204863 h 2.20486 v 2.204863 z m -6.614588,-2.204863 v -2.204863 h 6.614588 v 2.204863 z"
         id="path276" />
      <path
         d="m 104.13803,79.112194 v -2.204863 h 2.20487 v 2.204863 z m 2.20487,2.204863 v -2.204863 h 6.61459 v -2.204863 h -6.61459 v -2.204862 h 6.61459 v -2.204863 h 2.20486 v 8.819451 z m 0,-8.819451 v -2.204862 h 6.61459 v 2.204862 z"
         id="path278" />
      <path
         d="m 126.18666,74.702469 v -2.204863 h 2.20486 v 2.204863 z m -8.81945,6.614588 V 70.292744 h 2.20486 v 2.204862 h 2.20487 v 2.204863 h -2.20487 v 6.614588 z m 4.40973,-8.819451 v -2.204862 h 4.40972 v 2.204862 z"
         id="path280" />
      <path
         d="m 130.59638,79.112194 v -6.614588 h 2.20486 v 6.614588 z m 2.20486,-6.614588 v -2.204862 h 4.40973 v 2.204862 z m 0,8.819451 v -2.204863 h 6.61459 v -4.409725 h -2.20486 v -2.204863 h 2.20486 v -6.614588 h 2.20487 v 15.434039 z"
         id="path282" />
      <path
         d="m 143.82556,81.317057 v -2.204863 h 8.81945 v 2.204863 z m 8.81945,-2.204863 v -2.204863 h 2.20486 v 2.204863 z m -6.61459,-2.204863 v -2.204862 h 6.61459 v 2.204862 z m -2.20486,-2.204862 v -2.204863 h 2.20486 v 2.204863 z m 2.20486,-2.204863 v -2.204862 h 8.81945 v 2.204862 z"
         id="path284" />
    </g>
    <path
       style="fill:none;stroke-width:0.356129"
       d="m 258.5499,20.833567 v -4.095488 h 8.19098 8.19097 v 4.095488 4.095487 h -8.19097 -8.19098 z"
       id="path410"
       transform="matrix(0.26458333,0,0,0.26458333,65.204315,72.290378)" />
    <path
       style="fill:none;stroke-width:0.356129"
       d="m 258.5499,20.833567 v -4.095488 h 8.19098 8.19097 v 4.095488 4.095487 h -8.19097 -8.19098 z"
       id="path412"
       transform="matrix(0.26458333,0,0,0.26458333,65.204315,72.290378)" />
    <path
       style="fill:none;stroke-width:0.356129"
       d="m 258.5499,54.13166 v -3.917423 h 12.46453 12.46453 v -8.547104 -8.547104 h -4.09549 -4.09549 v -3.917423 -3.917423 h 4.09549 4.09549 V 12.642592 0 h 4.09548 4.09549 V 29.024541 58.049083 H 275.10992 258.5499 Z"
       id="path414"
       transform="matrix(0.26458333,0,0,0.26458333,65.204315,72.290378)" />
    <path
       style="fill:none;stroke-width:0.356129"
       d="M 258.5499,37.571646 V 25.285183 h 8.19098 8.19097 v 4.095488 4.095487 h 4.09549 4.09549 v 8.190975 8.190975 H 270.83636 258.5499 Z"
       id="path416"
       transform="matrix(0.26458333,0,0,0.26458333,65.204315,72.290378)" />
    <path
       style="fill:none;stroke-width:0.356129"
       d="m 258.5499,54.13166 v -3.917423 h 12.46453 12.46453 v -8.547104 -8.547104 h -4.09549 -4.09549 v -3.917423 -3.917423 h 4.09549 4.09549 V 12.642592 0 h 4.09548 4.09549 V 29.024541 58.049083 H 275.10992 258.5499 Z"
       id="path418"
       transform="matrix(0.26458333,0,0,0.26458333,65.204315,72.290378)" />
  </g>
</svg>
