<?xml version="1.0" standalone="no"?>
<!DOCTYPE svg PUBLIC "-//W3C//DTD SVG 20010904//EN"
 "http://www.w3.org/TR/2001/REC-SVG-20010904/DTD/svg10.dtd">
<svg version="1.0" xmlns="http://www.w3.org/2000/svg"
 width="100.000000pt" height="100.000000pt" viewBox="0 0 100.000000 100.000000"
 preserveAspectRatio="xMidYMid meet">
<metadata>
Created by potrace 1.14, written by Peter Selinger 2001-2017
</metadata>
<g transform="translate(0.000000,100.000000) scale(0.100000,-0.100000)"
fill="#000000" stroke="none">
<path d="M0 860 l0 -140 140 0 140 0 0 140 0 140 -140 0 -140 0 0 -140z m240
0 l0 -100 -100 0 -100 0 0 100 0 100 100 0 100 0 0 -100z"/>
<path d="M80 860 l0 -60 60 0 60 0 0 60 0 60 -60 0 -60 0 0 -60z"/>
<path d="M320 940 c0 -53 2 -60 20 -60 13 0 20 -7 20 -20 0 -13 -7 -20 -20
-20 -13 0 -20 -7 -20 -20 0 -13 7 -20 20 -20 13 0 20 -7 20 -20 0 -13 -7 -20
-20 -20 -13 0 -20 -7 -20 -20 0 -13 7 -20 20 -20 13 0 20 7 20 20 0 13 7 20
20 20 13 0 20 -7 20 -20 0 -13 7 -20 20 -20 13 0 20 -7 20 -20 0 -13 7 -20 20
-20 17 0 20 -7 20 -40 0 -33 -3 -40 -20 -40 -13 0 -20 7 -20 20 0 13 -7 20
-20 20 -13 0 -20 -7 -20 -20 0 -13 -7 -20 -20 -20 -17 0 -20 7 -20 40 l0 40
-120 0 c-113 0 -120 -1 -120 -20 0 -17 -7 -20 -40 -20 -33 0 -40 3 -40 20 0
13 -7 20 -20 20 -17 0 -20 -7 -20 -40 l0 -40 40 0 40 0 0 -40 0 -40 40 0 c33
0 40 -3 40 -20 0 -18 -7 -20 -60 -20 l-60 0 0 40 c0 33 -3 40 -20 40 -19 0
-20 -7 -20 -120 0 -113 1 -120 20 -120 17 0 20 7 20 40 0 33 3 40 20 40 13 0
20 -7 20 -20 0 -17 7 -20 40 -20 33 0 40 -3 40 -20 0 -18 7 -20 60 -20 53 0
60 2 60 20 0 17 7 20 40 20 33 0 40 -3 40 -20 0 -13 -7 -20 -20 -20 -19 0 -20
-7 -20 -100 0 -93 1 -100 20 -100 17 0 20 -7 20 -40 0 -33 -3 -40 -20 -40 -13
0 -20 -7 -20 -20 0 -17 7 -20 40 -20 l40 0 0 80 c0 73 2 80 20 80 18 0 20 -7
20 -60 0 -53 2 -60 20 -60 13 0 20 -7 20 -20 0 -13 7 -20 20 -20 17 0 20 7 20
40 0 33 3 40 20 40 13 0 20 7 20 20 0 13 7 20 20 20 17 0 20 -7 20 -40 0 -33
3 -40 20 -40 13 0 20 -7 20 -20 0 -13 7 -20 20 -20 13 0 20 7 20 20 0 13 7 20
20 20 13 0 20 -7 20 -20 0 -13 7 -20 20 -20 13 0 20 7 20 20 0 17 7 20 40 20
33 0 40 -3 40 -20 0 -13 7 -20 20 -20 13 0 20 7 20 20 0 17 7 20 40 20 33 0
40 -3 40 -20 0 -13 7 -20 20 -20 18 0 20 7 20 80 l0 80 -40 0 c-33 0 -40 -3
-40 -20 0 -18 -7 -20 -60 -20 -53 0 -60 -2 -60 -20 0 -17 -7 -20 -40 -20 -33
0 -40 3 -40 20 0 13 7 20 20 20 13 0 20 7 20 20 0 17 7 20 40 20 l40 0 0 100
c0 93 1 100 20 100 17 0 20 -7 20 -40 l0 -40 40 0 c33 0 40 -3 40 -20 0 -13
-7 -20 -20 -20 -13 0 -20 -7 -20 -20 0 -17 7 -20 40 -20 l40 0 0 40 c0 33 -3
40 -20 40 -17 0 -20 7 -20 40 0 33 3 40 20 40 17 0 20 7 20 40 0 33 -3 40 -20
40 -13 0 -20 7 -20 20 0 13 7 20 20 20 18 0 20 7 20 60 0 53 -2 60 -20 60 -13
0 -20 7 -20 20 0 13 7 20 20 20 13 0 20 7 20 20 0 18 -7 20 -60 20 -53 0 -60
-2 -60 -20 0 -13 -7 -20 -20 -20 -13 0 -20 7 -20 20 0 13 -7 20 -20 20 -13 0
-20 -7 -20 -20 0 -13 -7 -20 -20 -20 -13 0 -20 -7 -20 -20 0 -13 -7 -20 -20
-20 -17 0 -20 7 -20 40 0 33 -3 40 -20 40 -19 0 -20 7 -20 100 0 93 -1 100
-20 100 -18 0 -20 -7 -20 -80 0 -73 -2 -80 -20 -80 -17 0 -20 7 -20 40 0 33
-3 40 -20 40 -17 0 -20 -7 -20 -40 0 -33 -3 -40 -20 -40 -13 0 -20 7 -20 20 0
13 -7 20 -20 20 -13 0 -20 -7 -20 -20 0 -13 -7 -20 -20 -20 -18 0 -20 7 -20
60 0 53 -2 60 -20 60 -13 0 -20 7 -20 20 0 17 7 20 40 20 l40 0 0 60 0 60 -40
0 c-33 0 -40 -3 -40 -20 0 -13 7 -20 20 -20 13 0 20 -7 20 -20 0 -17 -7 -20
-40 -20 l-40 0 0 40 c0 33 -3 40 -20 40 -18 0 -20 -7 -20 -60z m80 -120 c0
-13 -7 -20 -20 -20 -13 0 -20 7 -20 20 0 13 7 20 20 20 13 0 20 -7 20 -20z
m120 -120 c0 -13 7 -20 20 -20 13 0 20 -7 20 -20 0 -13 -7 -20 -20 -20 -13 0
-20 7 -20 20 0 13 -7 20 -20 20 -13 0 -20 7 -20 20 0 13 7 20 20 20 13 0 20
-7 20 -20z m120 -40 c0 -13 -7 -20 -20 -20 -13 0 -20 7 -20 20 0 13 7 20 20
20 13 0 20 -7 20 -20z m-320 -40 c0 -13 7 -20 20 -20 13 0 20 -7 20 -20 0 -17
-7 -20 -40 -20 -33 0 -40 -3 -40 -20 0 -13 -7 -20 -20 -20 -13 0 -20 7 -20 20
0 13 7 20 20 20 13 0 20 7 20 20 0 17 -7 20 -40 20 -33 0 -40 -3 -40 -20 0
-13 -7 -20 -20 -20 -13 0 -20 7 -20 20 0 13 7 20 20 20 13 0 20 7 20 20 0 18
7 20 60 20 53 0 60 -2 60 -20z m240 -40 c0 -13 7 -20 20 -20 18 0 20 -7 20
-60 0 -53 -2 -60 -20 -60 -13 0 -20 7 -20 20 0 13 -7 20 -20 20 -13 0 -20 -7
-20 -20 0 -18 -7 -20 -60 -20 -53 0 -60 -2 -60 -20 0 -13 7 -20 20 -20 13 0
20 -7 20 -20 0 -13 7 -20 20 -20 13 0 20 7 20 20 0 19 7 20 100 20 l100 0 0
40 c0 33 -3 40 -20 40 -13 0 -20 7 -20 20 0 17 7 20 40 20 33 0 40 3 40 20 0
18 7 20 60 20 53 0 60 -2 60 -20 0 -18 7 -20 60 -20 53 0 60 -2 60 -20 0 -13
-7 -20 -20 -20 -13 0 -20 -7 -20 -20 0 -17 -7 -20 -40 -20 -33 0 -40 3 -40 20
0 13 -7 20 -20 20 -17 0 -20 -7 -20 -40 0 -33 3 -40 20 -40 13 0 20 -7 20 -20
0 -13 -7 -20 -20 -20 -13 0 -20 7 -20 20 0 13 -7 20 -20 20 -13 0 -20 -7 -20
-20 0 -13 -7 -20 -20 -20 -13 0 -20 7 -20 20 0 13 -7 20 -20 20 -13 0 -20 -7
-20 -20 0 -17 -7 -20 -40 -20 -33 0 -40 -3 -40 -20 0 -13 7 -20 20 -20 17 0
20 -7 20 -40 0 -33 -3 -40 -20 -40 -13 0 -20 7 -20 20 0 13 -7 20 -20 20 -13
0 -20 -7 -20 -20 0 -13 -7 -20 -20 -20 -13 0 -20 -7 -20 -20 0 -17 7 -20 40
-20 33 0 40 -3 40 -20 0 -17 7 -20 40 -20 l40 0 0 -60 c0 -53 -2 -60 -20 -60
-17 0 -20 7 -20 40 0 33 -3 40 -20 40 -13 0 -20 7 -20 20 0 17 -7 20 -40 20
l-40 0 0 -40 c0 -33 -3 -40 -20 -40 -17 0 -20 7 -20 40 0 33 3 40 20 40 13 0
20 7 20 20 0 13 -7 20 -20 20 -17 0 -20 7 -20 40 0 33 3 40 20 40 13 0 20 7
20 20 0 13 7 20 20 20 13 0 20 7 20 20 0 17 -7 20 -40 20 -33 0 -40 -3 -40
-20 0 -17 -7 -20 -40 -20 -33 0 -40 3 -40 20 0 13 -7 20 -20 20 -18 0 -20 7
-20 60 0 53 -2 60 -20 60 -13 0 -20 -7 -20 -20 0 -17 -7 -20 -40 -20 -33 0
-40 -3 -40 -20 0 -13 7 -20 20 -20 13 0 20 -7 20 -20 0 -18 -7 -20 -60 -20
l-60 0 0 60 0 60 80 0 c73 0 80 2 80 20 0 18 7 20 60 20 53 0 60 -2 60 -20 0
-17 7 -20 40 -20 l40 0 0 40 c0 33 -3 40 -20 40 -13 0 -20 7 -20 20 0 17 7 20
40 20 33 0 40 -3 40 -20z m400 0 c0 -17 -7 -20 -40 -20 -33 0 -40 3 -40 20 0
17 7 20 40 20 33 0 40 -3 40 -20z m0 -200 c0 -13 -7 -20 -20 -20 -13 0 -20 7
-20 20 0 13 7 20 20 20 13 0 20 -7 20 -20z m-160 -120 l0 -60 -60 0 -60 0 0
60 0 60 60 0 60 0 0 -60z m-360 -20 c0 -33 -3 -40 -20 -40 -13 0 -20 -7 -20
-20 0 -13 -7 -20 -20 -20 -13 0 -20 7 -20 20 0 13 7 20 20 20 13 0 20 7 20 20
0 13 -7 20 -20 20 -13 0 -20 7 -20 20 0 17 7 20 40 20 l40 0 0 -40z m440 -180
c0 -13 -7 -20 -20 -20 -13 0 -20 7 -20 20 0 13 7 20 20 20 13 0 20 -7 20 -20z"/>
<path d="M720 500 c0 -13 7 -20 20 -20 13 0 20 7 20 20 0 13 -7 20 -20 20 -13
0 -20 -7 -20 -20z"/>
<path d="M720 420 c0 -13 7 -20 20 -20 13 0 20 7 20 20 0 13 -7 20 -20 20 -13
0 -20 -7 -20 -20z"/>
<path d="M720 260 c0 -13 7 -20 20 -20 13 0 20 7 20 20 0 13 -7 20 -20 20 -13
0 -20 -7 -20 -20z"/>
<path d="M560 980 c0 -13 -7 -20 -20 -20 -18 0 -20 -7 -20 -60 0 -53 2 -60 20
-60 13 0 20 7 20 20 0 13 7 20 20 20 18 0 20 7 20 60 0 53 -2 60 -20 60 -13 0
-20 -7 -20 -20z"/>
<path d="M720 860 l0 -140 140 0 140 0 0 140 0 140 -140 0 -140 0 0 -140z
m240 0 l0 -100 -100 0 -100 0 0 100 0 100 100 0 100 0 0 -100z"/>
<path d="M800 860 l0 -60 60 0 60 0 0 60 0 60 -60 0 -60 0 0 -60z"/>
<path d="M640 940 c0 -13 7 -20 20 -20 13 0 20 7 20 20 0 13 -7 20 -20 20 -13
0 -20 -7 -20 -20z"/>
<path d="M0 140 l0 -140 140 0 140 0 0 140 0 140 -140 0 -140 0 0 -140z m240
0 l0 -100 -100 0 -100 0 0 100 0 100 100 0 100 0 0 -100z"/>
<path d="M80 140 l0 -60 60 0 60 0 0 60 0 60 -60 0 -60 0 0 -60z"/>
</g>
</svg>
